<svg width="19" height="22" viewBox="0 0 19 22" fill="none" xmlns="http://www.w3.org/2000/svg">
<path d="M0 7.32837V11.1642C0 12.0514 0.703429 12.7733 1.568 12.7733H2.52644L4.23911 21.6307C4.28054 21.8456 4.46414 22 4.67717 22H7.53145C7.66511 22 7.7918 21.9387 7.87662 21.8326C7.96144 21.7265 7.99546 21.5869 7.96951 21.4526L6.29107 12.7733H7.51774L15.9689 18.4184C16.0426 18.4676 16.1274 18.4927 16.2125 18.4927C16.2855 18.4927 16.3588 18.4743 16.4253 18.4372C16.5694 18.357 16.659 18.2026 16.659 18.0343V12.0268C17.981 11.8267 19 10.658 19 9.24631C19 7.8346 17.981 6.66594 16.659 6.46584V0.45828C16.659 0.289985 16.5694 0.135566 16.4253 0.0554469C16.2814 -0.0251197 16.1058 -0.017063 15.9689 0.0742458L7.51774 5.71928H1.568C0.703429 5.71928 0 6.44125 0 7.32837ZM6.98763 21.0833H5.04393L3.4369 12.7733H5.3806L6.98763 21.0833ZM18.1069 9.24631C18.1069 10.1508 17.4858 10.907 16.659 11.0959V7.39674C17.4858 7.5856 18.1069 8.34184 18.1069 9.24631ZM15.7659 17.1893L8.09663 12.0666V6.42603L15.7659 1.30333V17.1893ZM7.2035 11.8567H5.74714H2.89309H1.568C1.19579 11.8567 0.893133 11.546 0.893133 11.1642V7.32837C0.893133 6.94658 1.19579 6.63595 1.568 6.63595H7.2035V11.8567Z" fill="#474747"/>
</svg>
