<svg width="110" height="23" viewBox="0 0 110 23" fill="none" xmlns="http://www.w3.org/2000/svg">
<path d="M50.24 16H43.248V5.328H50.24V6.512H44.576V9.952H50.128V11.136H44.576V14.816H50.24V16ZM53.5094 16H52.3094V5.328H53.5094V16ZM59.3911 16.192C58.2391 16.192 57.2951 15.8187 56.5591 15.072C55.8231 14.3147 55.4551 13.3333 55.4551 12.128C55.4551 10.9973 55.8178 10.0427 56.5431 9.264C57.2685 8.47467 58.1751 8.08 59.2631 8.08C60.4045 8.08 61.3058 8.47467 61.9671 9.264C62.6391 10.0427 62.9751 11.0293 62.9751 12.224V12.528H56.7191C56.7725 13.2853 57.0498 13.92 57.5511 14.432C58.0525 14.944 58.7031 15.2 59.5031 15.2C60.4631 15.2 61.2578 14.8747 61.8871 14.224L62.4631 15.008C61.6738 15.7973 60.6498 16.192 59.3911 16.192ZM61.7911 11.648C61.7805 10.9867 61.5565 10.3947 61.1191 9.872C60.6818 9.33867 60.0578 9.072 59.2471 9.072C58.4791 9.072 57.8711 9.33333 57.4231 9.856C56.9858 10.3787 56.7511 10.976 56.7191 11.648H61.7911ZM68.3268 16.192C67.1854 16.192 66.2574 15.808 65.5428 15.04C64.8281 14.2613 64.4708 13.2907 64.4708 12.128C64.4708 10.9653 64.8281 10 65.5428 9.232C66.2574 8.464 67.1854 8.08 68.3268 8.08C69.5214 8.08 70.4654 8.528 71.1588 9.424L70.3588 10.16C69.8681 9.488 69.2121 9.152 68.3908 9.152C67.5801 9.152 66.9294 9.42933 66.4388 9.984C65.9588 10.5387 65.7188 11.2533 65.7188 12.128C65.7188 13.0027 65.9588 13.7227 66.4388 14.288C66.9294 14.8427 67.5801 15.12 68.3908 15.12C69.2014 15.12 69.8574 14.784 70.3588 14.112L71.1588 14.848C70.4654 15.744 69.5214 16.192 68.3268 16.192ZM74.7926 16.192C74.2273 16.192 73.8006 16.0373 73.5126 15.728C73.2246 15.4187 73.0806 14.9707 73.0806 14.384V9.328H71.8006V8.272H73.0806V6.16H74.2806V8.272H75.8486V9.328H74.2806V14.128C74.2806 14.4267 74.3446 14.6667 74.4726 14.848C74.6113 15.0293 74.8086 15.12 75.0646 15.12C75.4166 15.12 75.6886 15.0133 75.8806 14.8L76.2326 15.696C75.8806 16.0267 75.4006 16.192 74.7926 16.192ZM78.7438 16H77.5438V8.272H78.7438V9.52C79.4584 8.58133 80.3171 8.112 81.3198 8.112V9.344C81.1704 9.312 81.0104 9.296 80.8398 9.296C80.4771 9.296 80.0824 9.424 79.6558 9.68C79.2291 9.936 78.9251 10.2187 78.7438 10.528V16ZM83.417 7.168C83.2037 7.168 83.017 7.09333 82.857 6.944C82.697 6.784 82.617 6.592 82.617 6.368C82.617 6.144 82.697 5.952 82.857 5.792C83.017 5.632 83.2037 5.552 83.417 5.552C83.641 5.552 83.833 5.632 83.993 5.792C84.153 5.952 84.233 6.144 84.233 6.368C84.233 6.592 84.153 6.784 83.993 6.944C83.833 7.09333 83.641 7.168 83.417 7.168ZM84.025 16H82.825V8.272H84.025V16ZM89.8268 16.192C88.6854 16.192 87.7574 15.808 87.0428 15.04C86.3281 14.2613 85.9708 13.2907 85.9708 12.128C85.9708 10.9653 86.3281 10 87.0428 9.232C87.7574 8.464 88.6854 8.08 89.8268 8.08C91.0214 8.08 91.9654 8.528 92.6588 9.424L91.8588 10.16C91.3681 9.488 90.7121 9.152 89.8908 9.152C89.0801 9.152 88.4294 9.42933 87.9388 9.984C87.4588 10.5387 87.2188 11.2533 87.2188 12.128C87.2188 13.0027 87.4588 13.7227 87.9388 14.288C88.4294 14.8427 89.0801 15.12 89.8908 15.12C90.7014 15.12 91.3574 14.784 91.8588 14.112L92.6588 14.848C91.9654 15.744 91.0214 16.192 89.8268 16.192ZM94.9326 7.168C94.7193 7.168 94.5326 7.09333 94.3726 6.944C94.2126 6.784 94.1326 6.592 94.1326 6.368C94.1326 6.144 94.2126 5.952 94.3726 5.792C94.5326 5.632 94.7193 5.552 94.9326 5.552C95.1566 5.552 95.3486 5.632 95.5086 5.792C95.6686 5.952 95.7486 6.144 95.7486 6.368C95.7486 6.592 95.6686 6.784 95.5086 6.944C95.3486 7.09333 95.1566 7.168 94.9326 7.168ZM95.5406 16H94.3406V8.272H95.5406V16ZM99.8864 16.192C99.321 16.192 98.8944 16.0373 98.6064 15.728C98.3184 15.4187 98.1744 14.9707 98.1744 14.384V9.328H96.8944V8.272H98.1744V6.16H99.3744V8.272H100.942V9.328H99.3744V14.128C99.3744 14.4267 99.4384 14.6667 99.5664 14.848C99.705 15.0293 99.9024 15.12 100.158 15.12C100.51 15.12 100.782 15.0133 100.974 14.8L101.326 15.696C100.974 16.0267 100.494 16.192 99.8864 16.192ZM102.206 19.024L102.398 17.936C102.59 18.0213 102.808 18.064 103.054 18.064C103.331 18.064 103.56 18.0053 103.742 17.888C103.923 17.7707 104.078 17.5573 104.206 17.248L104.718 16.08L101.486 8.272H102.782L105.358 14.608L107.918 8.272H109.23L105.358 17.568C104.931 18.592 104.174 19.1147 103.086 19.136C102.766 19.136 102.472 19.0987 102.206 19.024Z" fill="#B2B2B2"/>
<path d="M0.897228 16.0418C1.34298 16.0418 1.71835 15.6664 1.71835 15.2207V6.75141C1.71835 5.01533 3.12598 3.60769 4.86207 3.60769H13.2375V4.7338C13.2375 5.06225 13.4017 5.34378 13.6833 5.48454C13.824 5.55492 13.9648 5.60184 14.1055 5.60184C14.2698 5.60184 14.434 5.55492 14.5748 5.46108L17.6012 3.51385C17.8592 3.34963 18 3.09156 18 2.78657C18 2.48158 17.8592 2.22352 17.6012 2.05929L14.5513 0.135525C14.2932 -0.0286995 13.9413 -0.05216 13.6598 0.112064C13.3783 0.252828 13.214 0.557815 13.214 0.862803V1.98891H4.86207C2.21102 1.98891 0.076107 4.12383 0.076107 6.75141V15.2207C0.076107 15.6899 0.428016 16.0418 0.897228 16.0418Z" fill="#B2B2B2"/>
<path d="M17.132 6.23523C16.6862 6.23523 16.3108 6.6106 16.3108 7.05635V15.5256C16.3108 17.2617 14.9032 18.6693 13.1671 18.6693H4.81514V17.5432C4.81514 17.2148 4.65092 16.9333 4.36939 16.7925C4.08786 16.6283 3.75942 16.6517 3.47789 16.816L0.451473 18.7632C0.193406 18.9274 0.0526428 19.1855 0.0526428 19.4905C0.0526428 19.7955 0.193406 20.0535 0.451473 20.2177L3.47789 22.165C3.61865 22.2588 3.78288 22.3057 3.9471 22.3057C4.08786 22.3057 4.22863 22.2588 4.36939 22.1884C4.65092 22.0477 4.81514 21.7427 4.81514 21.4377V20.2881H13.1906C15.8182 20.2881 17.9765 18.1532 17.9765 15.5022V7.05635C17.9531 6.58714 17.6012 6.23523 17.132 6.23523Z" fill="#B2B2B2"/>
<path d="M9.3665 15.7837L12.1349 10.5755C12.3929 10.0828 11.9941 9.49629 11.431 9.59013L10.1876 9.77781C10.0469 9.80127 9.92956 9.68397 9.92956 9.54321V6.82178C9.92956 6.11796 8.99113 5.88335 8.66268 6.49333L5.89433 11.7016C5.63627 12.1943 6.0351 12.7808 6.59815 12.6869L7.84156 12.4992C7.98233 12.4758 8.09963 12.5931 8.09963 12.7338V15.4553C8.07617 16.1591 9.03805 16.3937 9.3665 15.7837Z" fill="#B2B2B2"/>
</svg>
