<svg width="110" height="23" viewBox="0 0 110 23" fill="none" xmlns="http://www.w3.org/2000/svg">
<path d="M0.897228 16.0418C1.34298 16.0418 1.71835 15.6664 1.71835 15.2207V6.75141C1.71835 5.01533 3.12598 3.60769 4.86207 3.60769H13.2375V4.7338C13.2375 5.06225 13.4017 5.34378 13.6833 5.48454C13.824 5.55492 13.9648 5.60184 14.1055 5.60184C14.2698 5.60184 14.434 5.55492 14.5748 5.46108L17.6012 3.51385C17.8592 3.34963 18 3.09156 18 2.78657C18 2.48158 17.8592 2.22352 17.6012 2.05929L14.5513 0.135525C14.2932 -0.0286995 13.9413 -0.05216 13.6598 0.112064C13.3783 0.252828 13.214 0.557815 13.214 0.862803V1.98891H4.86207C2.21102 1.98891 0.076107 4.12383 0.076107 6.75141V15.2207C0.076107 15.6899 0.428016 16.0418 0.897228 16.0418Z" fill="#B2B2B2"/>
<path d="M17.132 6.23523C16.6862 6.23523 16.3108 6.6106 16.3108 7.05635V15.5256C16.3108 17.2617 14.9032 18.6693 13.1671 18.6693H4.81514V17.5432C4.81514 17.2148 4.65092 16.9333 4.36939 16.7925C4.08786 16.6283 3.75942 16.6517 3.47789 16.816L0.451473 18.7632C0.193406 18.9274 0.0526428 19.1855 0.0526428 19.4905C0.0526428 19.7955 0.193406 20.0535 0.451473 20.2177L3.47789 22.165C3.61865 22.2588 3.78288 22.3057 3.9471 22.3057C4.08786 22.3057 4.22863 22.2588 4.36939 22.1884C4.65092 22.0477 4.81514 21.7427 4.81514 21.4377V20.2881H13.1906C15.8182 20.2881 17.9765 18.1532 17.9765 15.5022V7.05635C17.9531 6.58714 17.6012 6.23523 17.132 6.23523Z" fill="#B2B2B2"/>
<path d="M9.3665 15.7837L12.1349 10.5755C12.3929 10.0828 11.9941 9.49629 11.431 9.59013L10.1876 9.77781C10.0469 9.80127 9.92956 9.68397 9.92956 9.54321V6.82178C9.92956 6.11796 8.99113 5.88335 8.66268 6.49333L5.89433 11.7016C5.63627 12.1943 6.0351 12.7808 6.59815 12.6869L7.84156 12.4992C7.98233 12.4758 8.09963 12.5931 8.09963 12.7338V15.4553C8.07617 16.1591 9.03805 16.3937 9.3665 15.7837Z" fill="#B2B2B2"/>
</svg>
