<svg width="14" height="11" viewBox="0 0 14 11" fill="none" xmlns="http://www.w3.org/2000/svg">
<path d="M12.2519 0.733398C13.2157 0.733398 14 1.51909 14 2.48477V9.2487C14 10.2144 13.2157 11.0001 12.2517 11.0001H1.74813C0.784311 11.0001 0 10.2144 0 9.2487V2.48477C0 1.51909 0.784311 0.733398 1.74813 0.733398H12.2519ZM1.74813 1.2294C1.50158 1.2294 1.27213 1.30202 1.07816 1.4259L6.07911 6.15735C6.58684 6.63778 7.413 6.63778 7.92104 6.15735L12.9218 1.4259C12.7279 1.30202 12.4984 1.2294 12.2517 1.2294H1.74813ZM13.5047 9.2487H13.5046V2.48477C13.5046 2.21876 13.4212 1.97271 13.2799 1.76935L8.26062 6.51794C7.91327 6.8469 7.4564 7.01145 6.99984 7.01145C6.54329 7.01145 6.08658 6.8469 5.73922 6.51794L0.719756 1.76935C0.578511 1.97255 0.495133 2.21876 0.495133 2.48477V9.2487C0.495133 9.94089 1.05731 10.5039 1.74813 10.5039H12.2517C12.9428 10.5039 13.5047 9.94074 13.5047 9.2487Z" fill="#474747"/>
</svg>
