<svg width="23" height="23" viewBox="0 0 23 23" fill="none" xmlns="http://www.w3.org/2000/svg">
<circle cx="11.5" cy="11.5" r="11.1" stroke="#474747" stroke-width="0.8"/>
<path d="M17.2519 6.7334C18.2157 6.7334 19 7.51909 19 8.48477V15.2487C19 16.2144 18.2157 17.0001 17.2517 17.0001H6.74813C5.78431 17.0001 5 16.2144 5 15.2487V8.48477C5 7.51909 5.78431 6.7334 6.74813 6.7334H17.2519ZM6.74813 7.2294C6.50158 7.2294 6.27213 7.30202 6.07816 7.4259L11.0791 12.1574C11.5868 12.6378 12.413 12.6378 12.921 12.1574L17.9218 7.4259C17.7279 7.30202 17.4984 7.2294 17.2517 7.2294H6.74813ZM18.5047 15.2487H18.5046V8.48477C18.5046 8.21876 18.4212 7.97271 18.2799 7.76935L13.2606 12.5179C12.9133 12.8469 12.4564 13.0115 11.9998 13.0115C11.5433 13.0115 11.0866 12.8469 10.7392 12.5179L5.71976 7.76935C5.57851 7.97255 5.49513 8.21876 5.49513 8.48477V15.2487C5.49513 15.9409 6.05731 16.5039 6.74813 16.5039H17.2517C17.9428 16.5039 18.5047 15.9407 18.5047 15.2487Z" fill="#474747"/>
</svg>
