<svg width="36" height="36" viewBox="0 0 36 36" fill="none" xmlns="http://www.w3.org/2000/svg">
<circle cx="18" cy="18" r="18" fill="#F9E4CB"/>
<path d="M26.217 25.666H20.8778V24.899H25.4502V16.3562L18 10.7005L10.5498 16.3562V24.899H15.1221V25.666H9.78284V15.9757L18 9.73767L26.217 15.9757V25.666Z" fill="#F0A243"/>
<path d="M23.8438 22.402H20.8533V17.9243H23.8438V22.402ZM21.401 21.8541H23.2961V18.4718H21.401V21.8541Z" fill="#F0A243"/>
<path d="M23.5702 20.4969H21.1272V20.8258H23.5702V20.4969Z" fill="#F0A243"/>
<path d="M15.1468 22.402H12.1559V17.9243H15.1468V22.402ZM12.7038 21.8541H14.5991V18.4718H12.7038V21.8541Z" fill="#F0A243"/>
<path d="M14.8731 20.4969H12.4298V20.8258H14.8731V20.4969Z" fill="#F0A243"/>
<path d="M27.004 17.6733L18 10.8379L8.99603 17.6729L8.40002 16.8877L18 9.59998L27.6 16.8881L27.004 17.6733Z" fill="#F0A243"/>
<path d="M21.1518 26.0544H14.8481V24.2565H21.1516V26.0544H21.1518ZM15.3959 25.5069H20.6041V24.804H15.3959V25.5069Z" fill="#F0A243"/>
<path d="M19.9097 24.5303H19.362V18.4718H16.6378V24.5303H16.0901V17.9243H19.9097V24.5303Z" fill="#F0A243"/>
<path d="M19.0554 21.1451H18.4705V21.5833H19.0554V21.1451Z" fill="#F0A243"/>
</svg>
