<svg width="13" height="19" viewBox="0 0 13 19" fill="none" xmlns="http://www.w3.org/2000/svg">
<path d="M4.40323 4.86047H3.56452V1.32558C3.56452 0.594302 4.12855 0 4.82258 0H8.17742C8.87145 0 9.43548 0.594302 9.43548 1.32558V4.86047H8.59677V1.32558C8.59677 1.08256 8.40806 0.883721 8.17742 0.883721H4.82258C4.59194 0.883721 4.40323 1.08256 4.40323 1.32558V4.86047ZM13 7.06977V17.6744C13 18.4057 12.436 19 11.7419 19H1.25806C0.564032 19 0 18.4057 0 17.6744V7.06977C0 6.33849 0.564032 5.74419 1.25806 5.74419H11.7419C12.436 5.74419 13 6.33849 13 7.06977ZM9.01613 11.4884C9.01613 10.0258 7.88806 8.83721 6.5 8.83721C5.11194 8.83721 3.98387 10.0258 3.98387 11.4884C3.98387 12.4428 4.47032 13.3133 5.24194 13.7838V15.4651C5.24194 15.7081 5.43064 15.907 5.66129 15.907H7.33871C7.56935 15.907 7.75806 15.7081 7.75806 15.4651V13.7838C8.52968 13.3133 9.01613 12.4428 9.01613 11.4884ZM6.5 9.72093C5.57532 9.72093 4.82258 10.5141 4.82258 11.4884C4.82258 12.1909 5.21677 12.825 5.82903 13.1078C5.9821 13.1785 6.08065 13.3376 6.08065 13.5121V15.0233H6.91935V13.5121C6.91935 13.3376 7.0179 13.1785 7.17097 13.1078C7.78323 12.825 8.17742 12.1909 8.17742 11.4884C8.17742 10.5141 7.42468 9.72093 6.5 9.72093Z" fill="#F0A243"/>
</svg>
