<svg width="83" height="61" viewBox="0 0 83 61" fill="none" xmlns="http://www.w3.org/2000/svg">
<path fill-rule="evenodd" clip-rule="evenodd" d="M41.4667 58.1031C56.8793 58.1031 69.3738 45.6087 69.3738 30.196C69.3738 14.7834 56.8793 2.28891 41.4667 2.28891C26.054 2.28891 13.5595 14.7834 13.5595 30.196C13.5595 45.6087 26.054 58.1031 41.4667 58.1031ZM41.4667 60.392C58.1435 60.392 71.6627 46.8728 71.6627 30.196C71.6627 13.5192 58.1435 0 41.4667 0C24.7899 0 11.2706 13.5192 11.2706 30.196C11.2706 46.8728 24.7899 60.392 41.4667 60.392Z" fill="#A0A1A5"/>
<path fill-rule="evenodd" clip-rule="evenodd" d="M40.7534 13.5031L82.9191 34.8088L81.8868 36.8517L40.7714 16.0767L1.06074 36.8444L0 34.8161L40.7534 13.5031Z" fill="#F0A243"/>
<path d="M41.4037 31.089C42.9874 31.089 44.2712 29.8052 44.2712 28.2215C44.2712 26.6379 42.9874 25.3541 41.4037 25.3541C39.8201 25.3541 38.5363 26.6379 38.5363 28.2215C38.5363 29.8052 39.8201 31.089 41.4037 31.089Z" fill="#F0A243"/>
<path d="M44.2712 33.0006H38.5364C37.4812 33.0006 36.6248 33.857 36.6248 34.9122V44.4703H38.5364V52.1168H44.2712V44.4703H46.1828V34.9122C46.1828 33.857 45.3264 33.0006 44.2712 33.0006Z" fill="#A0A1A5"/>
</svg>
