<svg width="25" height="24" viewBox="0 0 25 24" fill="none" xmlns="http://www.w3.org/2000/svg">
<path d="M8.04545 10.1143H1.26596C1.04121 10.1143 0.825659 10.2031 0.666734 10.3611C0.507809 10.5192 0.418526 10.7336 0.418526 10.9571V21.0714C0.418526 21.742 0.686375 22.3852 1.16315 22.8594C1.63993 23.3336 2.28657 23.6 2.96083 23.6H8.04545C8.27021 23.6 8.48575 23.5112 8.64468 23.3531C8.8036 23.195 8.89289 22.9806 8.89289 22.7571V10.9571C8.89289 10.7336 8.8036 10.5192 8.64468 10.3611C8.48575 10.2031 8.27021 10.1143 8.04545 10.1143ZM7.19801 21.9142H2.96083C2.73608 21.9142 2.52053 21.8254 2.36161 21.6674C2.20268 21.5093 2.1134 21.2949 2.1134 21.0714V11.8H7.19801V21.9142ZM21.6044 0H2.96083C2.28657 0 1.63993 0.266402 1.16315 0.7406C0.686375 1.2148 0.418526 1.85795 0.418526 2.52857V7.5857C0.418526 7.80924 0.507809 8.02362 0.666734 8.18169C0.825659 8.33975 1.04121 8.42855 1.26596 8.42855H23.2993C23.5241 8.42855 23.7396 8.33975 23.8985 8.18169C24.0575 8.02362 24.1467 7.80924 24.1467 7.5857V2.52857C24.1467 1.85795 23.8789 1.2148 23.4021 0.7406C22.9253 0.266402 22.2787 0 21.6044 0ZM22.4519 6.74284H2.1134V2.52857C2.1134 2.30503 2.20268 2.09064 2.36161 1.93258C2.52053 1.77451 2.73608 1.68571 2.96083 1.68571H21.6044C21.8292 1.68571 22.0447 1.77451 22.2037 1.93258C22.3626 2.09064 22.4519 2.30503 22.4519 2.52857V6.74284ZM23.2993 10.1143H11.4352C11.2104 10.1143 10.9949 10.2031 10.836 10.3611C10.677 10.5192 10.5878 10.7336 10.5878 10.9571V22.7571C10.5878 22.9806 10.677 23.195 10.836 23.3531C10.9949 23.5112 11.2104 23.6 11.4352 23.6H21.6044C22.2787 23.6 22.9253 23.3336 23.4021 22.8594C23.8789 22.3852 24.1467 21.742 24.1467 21.0714V10.9571C24.1467 10.7336 24.0575 10.5192 23.8985 10.3611C23.7396 10.2031 23.5241 10.1143 23.2993 10.1143ZM22.4519 21.0714C22.4519 21.2949 22.3626 21.5093 22.2037 21.6674C22.0447 21.8254 21.8292 21.9142 21.6044 21.9142H12.2826V11.8H22.4519V21.0714Z" fill="#B2B2B2"/>
</svg>
