<svg width="23" height="17" viewBox="0 0 23 17" fill="none" xmlns="http://www.w3.org/2000/svg">
<path d="M2.49085 0H19.8023C21.1723 0 22.2931 1.12088 22.2931 2.49085V14.5092C22.2931 15.8792 21.1723 17.0001 19.8023 17.0001H2.49085C1.12088 17.0001 0 15.8792 0 14.5092V2.49085C0 1.12088 1.12088 0 2.49085 0ZM1.18316 4.23445H21.11V2.49085C21.11 1.80587 20.4873 1.18316 19.8023 1.18316H2.49085C1.80587 1.18316 1.18316 1.80587 1.18316 2.49085V4.23445ZM21.11 7.03666H1.18316V14.5092C1.18316 15.2565 1.80587 15.8169 2.49085 15.8169H19.8023C20.4873 15.8169 21.11 15.2565 21.11 14.5092V7.03666Z" fill="#B2B2B2"/>
<path d="M4.04764 11.1465C3.73628 11.1465 3.4872 10.8974 3.4872 10.5861C3.4872 10.2125 3.73628 9.96338 4.04764 9.96338H9.3407C9.65206 9.96338 9.96342 10.2125 9.96342 10.5861C9.96342 10.8974 9.65206 11.1465 9.3407 11.1465H4.04764Z" fill="#B2B2B2"/>
<path d="M4.04764 13.8243C3.73628 13.8243 3.4872 13.5129 3.4872 13.2016C3.4872 12.8902 3.73628 12.5789 4.04764 12.5789H7.72165C8.03301 12.5789 8.34436 12.8902 8.34436 13.2016C8.34436 13.5129 8.03301 13.8243 7.72165 13.8243H4.04764Z" fill="#B2B2B2"/>
</svg>
