<svg width="23" height="23" viewBox="0 0 23 23" fill="none" xmlns="http://www.w3.org/2000/svg">
<circle cx="11.5" cy="11.5" r="11.1" stroke="#474747" stroke-width="0.8"/>
<path d="M11.1157 15.7637C11.1157 15.8259 11.128 15.8875 11.1518 15.945C11.1756 16.0025 11.2105 16.0548 11.2545 16.0988C11.2985 16.1428 11.3508 16.1777 11.4083 16.2015C11.4657 16.2253 11.5274 16.2375 11.5896 16.2375C11.6518 16.2375 11.7134 16.2253 11.7709 16.2015C11.8284 16.1777 11.8807 16.1428 11.9247 16.0988C11.9687 16.0548 12.0036 16.0025 12.0274 15.945C12.0512 15.8875 12.0635 15.8259 12.0635 15.7637C12.0635 15.7014 12.0512 15.6398 12.0274 15.5823C12.0036 15.5248 11.9687 15.4726 11.9247 15.4286C11.8807 15.3846 11.8284 15.3497 11.7709 15.3259C11.7134 15.3021 11.6518 15.2898 11.5896 15.2898C11.5274 15.2898 11.4657 15.3021 11.4083 15.3259C11.3508 15.3497 11.2985 15.3846 11.2545 15.4286C11.2105 15.4726 11.1756 15.5248 11.1518 15.5823C11.128 15.6398 11.1157 15.7014 11.1157 15.7637Z" fill="#474747"/>
<path d="M13.937 5H9.24054C8.5568 5 8 5.5568 8 6.24054V16.1835C8 16.8672 8.5568 17.424 9.24054 17.424H13.937C14.6207 17.424 15.1775 16.8672 15.1775 16.1835V6.24054C15.1775 5.5568 14.6207 5 13.937 5ZM14.4329 16.1835C14.4329 16.4559 14.2112 16.6793 13.937 16.6793H9.24054C8.96806 16.6793 8.74466 16.4576 8.74466 16.1835V6.24054C8.74466 5.96806 8.96637 5.74466 9.24054 5.74466H10.1781L10.2238 5.98329C10.2492 6.11361 10.3795 6.21007 10.5319 6.21007H12.644C12.798 6.21007 12.9283 6.11361 12.952 5.98329L12.9977 5.74466H13.9353C14.2078 5.74466 14.4312 5.96637 14.4312 6.24054V16.1835H14.4329Z" fill="#474747"/>
</svg>
