<svg width="8" height="13" viewBox="0 0 8 13" fill="none" xmlns="http://www.w3.org/2000/svg">
<path d="M5.93699 0H1.24054C0.556804 0 0 0.556804 0 1.24054V11.1835C0 11.8672 0.556804 12.424 1.24054 12.424H5.93699C6.62072 12.424 7.17753 11.8672 7.17753 11.1835V1.24054C7.17753 0.556804 6.62072 0 5.93699 0ZM6.43286 11.1835C6.43286 11.4559 6.21116 11.6793 5.93699 11.6793H1.24054C0.96806 11.6793 0.744662 11.4576 0.744662 11.1835V1.24054C0.744662 0.96806 0.966368 0.744661 1.24054 0.744661H2.17814L2.22383 0.983292C2.24922 1.11361 2.37953 1.21007 2.53185 1.21007H4.64398C4.79799 1.21007 4.92831 1.11361 4.952 0.983292L4.9977 0.744661H5.93529C6.20777 0.744661 6.43117 0.966368 6.43117 1.24054V11.1835H6.43286Z" fill="#474747"/>
</svg>
