<svg width="39" height="34" viewBox="0 0 39 34" fill="none" xmlns="http://www.w3.org/2000/svg">
<rect width="39" height="34" rx="5" fill="#F9E4CB"/>
<path d="M16.4517 18.9011L11.2006 24.1523C11.1405 24.2037 11.0917 24.267 11.0573 24.3382C11.0228 24.4094 11.0035 24.487 11.0004 24.566C10.9974 24.645 11.0107 24.7239 11.0395 24.7975C11.0684 24.8711 11.1122 24.938 11.1681 24.994C11.224 25.0499 11.2909 25.0937 11.3645 25.1225C11.4382 25.1514 11.517 25.1647 11.596 25.1616C11.6751 25.1586 11.7526 25.1392 11.8238 25.1048C11.895 25.0703 11.9583 25.0215 12.0098 24.9615L17.2609 19.7103L16.4517 18.9011Z" fill="#F0A243"/>
<path d="M26.9311 12.9613L23.2007 9.231C22.9631 9.06065 22.6726 8.98024 22.3812 9.00412C22.0897 9.02801 21.8162 9.15462 21.6094 9.3614C21.4027 9.56817 21.2761 9.84166 21.2522 10.1331C21.2283 10.4246 21.3087 10.715 21.4791 10.9527C21.4925 10.9699 21.4999 10.9911 21.4999 11.0129C21.4999 11.0348 21.4925 11.056 21.4791 11.0732L19.4188 13.1335C19.1844 13.382 18.8716 13.5423 18.5329 13.5872C18.1942 13.6322 17.8504 13.5591 17.5594 13.3803C17.0537 13.0298 16.441 12.8683 15.8284 12.9239C15.2157 12.9795 14.6421 13.2487 14.2078 13.6844L13.5421 14.3616C13.4386 14.4686 13.3808 14.6116 13.3808 14.7605C13.3808 14.9093 13.4386 15.0523 13.5421 15.1593L21.0027 22.62C21.1102 22.7269 21.2557 22.7869 21.4073 22.7869C21.5589 22.7869 21.7044 22.7269 21.8119 22.62L22.4891 21.9428C22.9202 21.5078 23.1854 20.9357 23.2389 20.3256C23.2923 19.7156 23.1306 19.106 22.7818 18.6027C22.603 18.3116 22.5299 17.9678 22.5748 17.6292C22.6198 17.2905 22.78 16.9777 23.0286 16.7433L25.0659 14.706C25.0831 14.6925 25.1043 14.6851 25.1262 14.6851C25.148 14.6851 25.1692 14.6925 25.1864 14.706C25.4241 14.8763 25.7145 14.9567 26.006 14.9328C26.2974 14.909 26.5709 14.7823 26.7777 14.5756C26.9845 14.3688 27.1111 14.0953 27.135 13.8039C27.1589 13.5124 27.0785 13.222 26.9081 12.9843L26.9311 12.9613Z" fill="#F0A243"/>
</svg>
