<svg width="24" height="23" viewBox="0 0 24 23" fill="none" xmlns="http://www.w3.org/2000/svg">
<path d="M11.6188 0C5.21219 0 0 5.132 0 11.44C0 14.584 1.3325 17.616 3.66438 19.776V19.78L4.28594 20.324L4.29 20.312C4.76125 20.692 5.26094 21.028 5.77281 21.324C7.54406 22.344 9.56719 22.88 11.6228 22.88C13.6784 22.88 15.7016 22.34 17.4728 21.324C17.9847 21.028 18.4844 20.688 18.9556 20.312L18.9597 20.336L19.5812 19.776C21.905 17.616 23.2375 14.584 23.2375 11.44C23.2375 5.132 18.0253 0 11.6188 0ZM18.1269 20.24L17.9888 20.152C17.6962 20.36 17.3997 20.552 17.1112 20.716C15.4497 21.672 13.5484 22.176 11.6188 22.176C9.68906 22.176 7.79187 21.672 6.12625 20.716C5.83781 20.548 5.54125 20.36 5.24875 20.152L5.15938 20.272L5.2 20.116C4.94813 19.936 4.69219 19.732 4.44031 19.516C4.44844 19.484 4.4525 19.452 4.46062 19.42L4.47281 19.372C4.485 19.316 4.49719 19.264 4.50938 19.208C4.52563 19.14 4.54594 19.076 4.57438 18.98L4.59062 18.92C4.60281 18.872 4.61906 18.824 4.63531 18.776C4.65562 18.716 4.67594 18.66 4.69625 18.604L4.73688 18.492C4.75312 18.448 4.76938 18.4 4.78563 18.356C4.81 18.3 4.83437 18.24 4.85875 18.184L4.90344 18.08C4.92375 18.036 4.94 17.992 4.96437 17.948C4.99281 17.888 5.02125 17.832 5.05375 17.772L5.10656 17.672C5.12687 17.632 5.14719 17.592 5.1675 17.552C5.2 17.496 5.2325 17.436 5.26906 17.38L5.33406 17.272C5.35438 17.236 5.37469 17.2 5.39906 17.168C5.43969 17.108 5.48031 17.048 5.52094 16.988L5.59 16.884C5.61031 16.856 5.62656 16.828 5.64687 16.8C5.71187 16.708 5.785 16.62 5.85406 16.532L5.91906 16.452C6.0125 16.336 6.11 16.228 6.21156 16.12L6.31313 16.016C6.38219 15.944 6.45125 15.872 6.52437 15.804L6.695 15.652C6.74781 15.604 6.80469 15.552 6.86156 15.508C6.89 15.484 6.9225 15.46 6.955 15.436L7.06063 15.352C7.11344 15.312 7.16219 15.268 7.21906 15.232C7.25156 15.208 7.28813 15.184 7.32469 15.16L7.41813 15.092C7.475 15.052 7.53188 15.012 7.58875 14.976C7.62531 14.952 7.66594 14.928 7.70656 14.904L7.80406 14.844C7.86094 14.808 7.92188 14.772 7.97875 14.74C8.01938 14.716 8.06 14.696 8.10063 14.676L8.16563 14.644C8.23875 14.604 8.31188 14.568 8.385 14.532C8.42969 14.512 8.47438 14.492 8.51906 14.468L8.57188 14.444C8.60844 14.428 8.64906 14.408 8.68563 14.392C8.68969 14.396 8.69781 14.396 8.70187 14.4L8.77094 14.44C8.81969 14.468 8.86844 14.496 8.91313 14.524C8.96594 14.552 9.01469 14.576 9.0675 14.604L9.13656 14.468L9.1325 14.632C9.18125 14.656 9.22594 14.68 9.27875 14.704C9.3275 14.728 9.38031 14.748 9.42906 14.768L9.5225 14.804C9.56313 14.82 9.60781 14.84 9.64844 14.856C9.70125 14.876 9.75406 14.892 9.81094 14.912L9.90844 14.944C9.94906 14.956 9.98969 14.972 10.0303 14.984C10.0872 15 10.14 15.016 10.1969 15.028L10.2863 15.052C10.3309 15.064 10.3716 15.076 10.4163 15.084C10.4772 15.096 10.5381 15.108 10.5991 15.116L10.7006 15.136C10.7372 15.144 10.7738 15.148 10.8103 15.156C10.8875 15.168 10.9606 15.172 11.0744 15.184L11.1231 15.188C11.1516 15.192 11.18 15.196 11.2125 15.196C11.4806 15.216 11.7569 15.216 12.025 15.196C12.0534 15.196 12.0819 15.192 12.1144 15.188L12.1997 15.18C12.2769 15.172 12.35 15.164 12.4272 15.156C12.4638 15.152 12.5003 15.144 12.5369 15.136L12.6384 15.116C12.6994 15.104 12.7603 15.096 12.8212 15.084C12.8659 15.076 12.9066 15.064 12.9513 15.052L13.0406 15.028C13.0975 15.016 13.1544 15 13.2072 14.984C13.2478 14.972 13.2884 14.96 13.3291 14.944L13.4266 14.912C13.4794 14.896 13.5362 14.876 13.5891 14.856C13.6297 14.84 13.6744 14.824 13.715 14.804L13.8084 14.768C13.8612 14.748 13.91 14.728 13.9628 14.704C14.0116 14.684 14.0603 14.66 14.105 14.636L14.0359 14.504L14.1659 14.608C14.2188 14.584 14.2675 14.556 14.3203 14.528C14.3691 14.5 14.4178 14.472 14.4869 14.432L14.5316 14.404C14.5356 14.4 14.5437 14.4 14.5478 14.396C14.5844 14.412 14.625 14.432 14.6616 14.448L14.7144 14.472C14.7591 14.492 14.8038 14.512 14.8484 14.536C14.9216 14.572 14.9947 14.612 15.0759 14.652L15.1328 14.68C15.1734 14.7 15.2141 14.724 15.2547 14.744C15.3156 14.776 15.3725 14.812 15.4294 14.848L15.5269 14.908C15.5675 14.932 15.6041 14.956 15.6447 14.98C15.7016 15.016 15.7584 15.056 15.8153 15.096L15.9087 15.164C15.9453 15.188 15.9778 15.212 16.0144 15.236C16.0672 15.276 16.12 15.316 16.1728 15.356L16.2784 15.44C16.3109 15.464 16.3394 15.488 16.3719 15.512C16.4287 15.56 16.4816 15.608 16.5384 15.656L16.7091 15.808C16.7822 15.876 16.8512 15.948 16.9284 16.028L17.0259 16.124C17.1275 16.232 17.225 16.344 17.3184 16.456L17.3794 16.536C17.4484 16.624 17.5216 16.712 17.5866 16.804C17.6069 16.832 17.6231 16.86 17.6434 16.888L17.7125 16.992C17.7531 17.052 17.7937 17.112 17.8344 17.172C17.8547 17.208 17.875 17.24 17.8994 17.276L17.9644 17.384C17.9969 17.44 18.0334 17.496 18.0659 17.552C18.0862 17.592 18.1066 17.632 18.1269 17.672L18.1797 17.772C18.2081 17.828 18.2406 17.888 18.2691 17.948C18.2894 17.992 18.3097 18.036 18.33 18.08L18.3747 18.184C18.3991 18.24 18.4234 18.296 18.4478 18.356C18.4641 18.4 18.4803 18.444 18.4966 18.492L18.5372 18.604C18.5575 18.66 18.5778 18.72 18.5981 18.776C18.6144 18.824 18.6266 18.872 18.6428 18.92L18.6712 19.012C18.6916 19.076 18.7119 19.14 18.7281 19.208C18.7403 19.26 18.7525 19.316 18.7647 19.372L18.7769 19.42C18.785 19.452 18.7931 19.484 18.7972 19.516C18.5453 19.732 18.2894 19.936 18.0375 20.116L18.1269 20.24ZM6.69094 9.656C6.69094 6.98 8.90094 4.804 11.6188 4.804C14.3366 4.804 16.5466 6.98 16.5466 9.656C16.5466 11.288 15.7178 12.8 14.3325 13.704C13.5241 14.228 12.5856 14.508 11.6228 14.508C10.66 14.508 9.7175 14.232 8.91313 13.704C7.51969 12.804 6.69094 11.288 6.69094 9.656ZM19.3984 18.968L19.3944 18.956C19.37 18.864 19.3456 18.776 19.3172 18.688C19.2969 18.62 19.2766 18.556 19.2522 18.492C19.2237 18.404 19.1912 18.32 19.1588 18.232C19.1344 18.168 19.11 18.104 19.0816 18.04C19.045 17.956 19.0125 17.872 18.9719 17.788C18.9434 17.728 18.915 17.664 18.8866 17.604C18.8459 17.52 18.8053 17.436 18.7484 17.328C18.7241 17.28 18.6956 17.228 18.6712 17.18C18.6225 17.096 18.5737 17.012 18.525 16.932L18.4966 16.884C18.4722 16.848 18.4519 16.808 18.4275 16.772C18.3706 16.684 18.3097 16.596 18.2487 16.508L18.1594 16.38C18.07 16.256 17.9766 16.132 17.8709 16.008C17.7694 15.888 17.6678 15.768 17.5581 15.652L17.4484 15.54C17.3753 15.464 17.3022 15.388 17.225 15.316C17.1925 15.284 17.16 15.256 17.1275 15.224L17.0869 15.188C17.0137 15.124 16.9447 15.06 16.8716 14.996C16.8309 14.96 16.7862 14.928 16.7172 14.872C16.6441 14.812 16.5709 14.756 16.4978 14.7C16.445 14.66 16.3881 14.62 16.3312 14.58C16.2541 14.528 16.1809 14.476 16.1038 14.424C16.0469 14.384 15.9859 14.348 15.9291 14.312C15.8519 14.264 15.7706 14.216 15.6894 14.168C15.6284 14.132 15.5716 14.1 15.5066 14.068C15.4212 14.024 15.3359 13.98 15.2222 13.924C15.2181 13.924 15.2141 13.92 15.21 13.92C15.2709 13.868 15.3359 13.816 15.3969 13.764C15.4903 13.684 15.5756 13.596 15.6609 13.512C15.73 13.44 15.8031 13.368 15.8681 13.292C15.9494 13.2 16.0266 13.104 16.1159 12.988C16.1728 12.916 16.2256 12.844 16.2784 12.772C16.3475 12.672 16.4125 12.564 16.4734 12.46L16.5019 12.412C16.5425 12.344 16.5831 12.28 16.6197 12.208C16.6766 12.096 16.7294 11.984 16.7781 11.868L16.8066 11.8C16.835 11.736 16.8634 11.672 16.8878 11.608C16.9325 11.496 16.965 11.376 17.0097 11.232L17.0341 11.152C17.0503 11.096 17.0706 11.04 17.0869 10.98C17.1234 10.84 17.1437 10.696 17.1681 10.548L17.1844 10.468C17.1925 10.424 17.2006 10.376 17.2087 10.332C17.2372 10.104 17.2494 9.88 17.2494 9.66C17.2494 6.6 14.7225 4.108 11.6106 4.108C8.49875 4.108 5.97188 6.596 5.97188 9.66C5.97188 9.876 5.98813 10.104 6.0125 10.332C6.01656 10.38 6.02875 10.424 6.03688 10.468L6.05312 10.552C6.0775 10.696 6.10188 10.84 6.13438 10.98C6.15063 11.036 6.16687 11.096 6.18719 11.152L6.21969 11.264C6.25625 11.38 6.28875 11.496 6.33344 11.612C6.35781 11.676 6.38625 11.74 6.41469 11.804L6.44313 11.872C6.49188 11.988 6.54469 12.1 6.60156 12.212C6.63812 12.28 6.67875 12.348 6.71938 12.416L6.74781 12.464C6.80875 12.568 6.87375 12.676 6.94281 12.776C6.99563 12.852 7.04844 12.92 7.12156 13.016C7.19469 13.112 7.27188 13.208 7.35313 13.3C7.41813 13.376 7.48719 13.448 7.56031 13.52C7.64563 13.608 7.735 13.692 7.82438 13.772C7.88531 13.828 7.94625 13.88 8.01125 13.928C7.99906 13.932 7.98688 13.94 7.97063 13.948C7.88531 13.992 7.8 14.032 7.71469 14.08C7.65375 14.112 7.59281 14.148 7.53594 14.18C7.45469 14.228 7.37344 14.272 7.29625 14.324C7.23531 14.36 7.17844 14.4 7.12156 14.436C7.04438 14.488 6.96719 14.54 6.89406 14.592C6.83719 14.632 6.78437 14.672 6.7275 14.712C6.65437 14.768 6.58125 14.824 6.47969 14.904C6.435 14.936 6.39438 14.972 6.35375 15.008C6.28063 15.072 6.2075 15.136 6.13844 15.2L6.09781 15.236C6.06531 15.264 6.03281 15.296 6.00031 15.328C5.92313 15.4 5.85 15.476 5.77688 15.552L5.66719 15.664C5.56156 15.78 5.45594 15.896 5.34625 16.028C5.24875 16.148 5.15531 16.268 5.06594 16.392L4.97656 16.52C4.91563 16.608 4.85469 16.696 4.79781 16.784C4.77344 16.82 4.75312 16.86 4.72875 16.896L4.7125 16.936C4.66375 17.02 4.61094 17.1 4.56625 17.184C4.53781 17.232 4.51344 17.284 4.47281 17.356C4.42812 17.44 4.3875 17.52 4.34688 17.604C4.31844 17.664 4.29 17.724 4.26156 17.788C4.225 17.872 4.18844 17.956 4.15187 18.04C4.1275 18.104 4.09906 18.168 4.07469 18.232C4.04219 18.316 4.00969 18.404 3.98125 18.492C3.96094 18.556 3.93656 18.624 3.91625 18.688C3.88781 18.776 3.86344 18.868 3.83906 18.956L3.835 18.968C1.84438 16.968 0.706875 14.24 0.706875 11.44C0.710937 5.52 5.60625 0.7 11.6188 0.7C17.6313 0.7 22.5266 5.52 22.5266 11.44C22.5266 14.24 21.3891 16.972 19.3984 18.968Z" fill="#474747"/>
</svg>
