<svg width="26" height="20" viewBox="0 0 26 20" fill="none" xmlns="http://www.w3.org/2000/svg">
<path d="M13.3551 19.7308C8.03354 19.7308 3.70178 15.399 3.70178 10.0775C3.70178 4.75595 8.03354 0.424194 13.3551 0.424194C18.6766 0.424194 23.0084 4.75595 23.0084 10.0775C23.0084 15.399 18.6766 19.7308 13.3551 19.7308ZM13.3551 1.3139C8.52287 1.3139 4.59149 5.24529 4.59149 10.0775C4.59149 14.9097 8.52287 18.8411 13.3551 18.8411C18.1873 18.8411 22.1187 14.9097 22.1187 10.0775C22.1187 5.24529 18.1873 1.3139 13.3551 1.3139Z" fill="black"/>
<path d="M18.0649 14.4649H8.64518C8.48949 14.4649 8.34491 14.3815 8.2615 14.248C8.18365 14.1146 8.17809 13.9477 8.25038 13.8087L8.83425 12.7077C9.04555 12.3129 9.15676 11.868 9.15676 11.4232L9.16233 8.21469C9.16233 5.87922 11.0585 3.98303 13.394 3.98303C14.5228 3.98303 15.5738 4.42232 16.3523 5.22862C17.1196 6.02379 17.5478 7.08588 17.5478 8.21469L17.5534 11.2063C17.5534 11.7958 17.7035 12.3852 17.976 12.9023L18.4597 13.8087C18.532 13.9477 18.5265 14.1146 18.4486 14.248C18.3652 14.3815 18.2206 14.4649 18.0649 14.4649ZM9.38475 13.5752H17.3198L17.1864 13.3249C16.8416 12.6743 16.6581 11.9459 16.6581 11.2119L16.6525 8.22025C16.6525 6.34631 15.2234 4.8783 13.394 4.8783C11.5534 4.8783 10.052 6.37968 10.052 8.22025L10.0465 11.4343C10.0465 12.0237 9.89633 12.6132 9.6183 13.1359L9.38475 13.5752Z" fill="black"/>
<path d="M13.3551 16.1719C12.4153 16.1719 11.6758 15.2433 11.6758 14.0589C11.6758 13.8142 11.876 13.614 12.1206 13.614C12.3653 13.614 12.5655 13.8142 12.5655 14.0589C12.5655 14.7206 12.9269 15.2822 13.3551 15.2822C13.7833 15.2822 14.1447 14.7206 14.1447 14.0589C14.1447 13.8142 14.3449 13.614 14.5896 13.614C14.8342 13.614 15.0344 13.8142 15.0344 14.0589C15.0344 15.2433 14.2949 16.1719 13.3551 16.1719Z" fill="black"/>
<path d="M5.35885 19.7305C5.2532 19.7305 5.15311 19.6971 5.0697 19.6193C2.30049 17.2171 0.710144 13.7361 0.710144 10.0772C0.710144 6.41825 2.29493 2.93728 5.06414 0.529516C5.24764 0.368257 5.53123 0.390499 5.69249 0.574001C5.85375 0.757502 5.83151 1.0411 5.64801 1.20236C3.07898 3.43774 1.59985 6.67404 1.59985 10.0772C1.59985 13.4803 3.07342 16.7166 5.64801 18.952C5.83151 19.1132 5.85375 19.3968 5.69249 19.5803C5.60352 19.6804 5.48119 19.7305 5.35885 19.7305Z" fill="black"/>
<path d="M21.3513 19.7308C21.229 19.7308 21.1011 19.6807 21.0177 19.5751C20.8564 19.3916 20.8787 19.108 21.0622 18.9467C23.6312 16.7113 25.1103 13.475 25.1103 10.0719C25.1103 6.66879 23.6367 3.43249 21.0622 1.19711C20.8787 1.03585 20.8564 0.752254 21.0177 0.568752C21.1789 0.38525 21.4625 0.363007 21.646 0.524266C24.4097 2.92647 26 6.40744 26 10.0719C26 13.7364 24.4152 17.2118 21.646 19.6196C21.5626 19.6974 21.457 19.7308 21.3513 19.7308Z" fill="black"/>
</svg>
