<svg width="24" height="24" viewBox="0 0 24 24" fill="none" xmlns="http://www.w3.org/2000/svg">
<path d="M20.3306 0H3.81854C2.84537 0 1.91206 0.386592 1.22392 1.07473C0.535781 1.76287 0.149189 2.69618 0.149189 3.66935V14.6774C0.149189 15.1593 0.2441 15.6364 0.428502 16.0816C0.612904 16.5268 0.883187 16.9313 1.22392 17.272C1.56465 17.6128 1.96916 17.8831 2.41434 18.0675C2.85953 18.2519 3.33668 18.3468 3.81854 18.3468H9.6834L14.8021 23.3921C14.9962 23.586 15.2587 23.6958 15.533 23.6979C15.6748 23.6982 15.8144 23.6636 15.9396 23.597C16.0837 23.5217 16.2009 23.4037 16.2754 23.2592C16.3498 23.1147 16.3778 22.9508 16.3555 22.7898L16.2393 18.3498H20.3306C21.3038 18.3498 22.2371 17.9632 22.9253 17.2751C23.6134 16.587 24 15.6537 24 14.6805V3.67241C24.0004 3.19029 23.9058 2.71281 23.7216 2.26727C23.5373 1.82173 23.2671 1.41687 22.9263 1.07581C22.5856 0.734755 22.1809 0.464199 21.7356 0.279605C21.2902 0.0950119 20.8128 -1.67404e-07 20.3306 0ZM22.7769 14.6774C22.7769 14.9987 22.7136 15.3168 22.5907 15.6136C22.4677 15.9103 22.2875 16.18 22.0604 16.4072C21.8332 16.6343 21.5636 16.8145 21.2668 16.9374C20.97 17.0604 20.6519 17.1237 20.3306 17.1237H15.6033C15.5217 17.1236 15.4409 17.1399 15.3657 17.1716C15.2905 17.2033 15.2223 17.2497 15.1654 17.3081C15.1084 17.3666 15.0636 17.4358 15.0338 17.5118C15.004 17.5877 14.9897 17.6689 14.9917 17.7505L15.1018 21.9672L10.3622 17.301C10.2483 17.188 10.0946 17.1243 9.93414 17.1237H3.81854C3.16976 17.1237 2.54755 16.8659 2.08879 16.4072C1.63004 15.9484 1.37231 15.3262 1.37231 14.6774V3.66935C1.37231 3.02057 1.63004 2.39836 2.08879 1.9396C2.54755 1.48085 3.16976 1.22312 3.81854 1.22312H20.3306C20.9794 1.22312 21.6016 1.48085 22.0604 1.9396C22.5192 2.39836 22.7769 3.02057 22.7769 3.66935V14.6774Z" fill="#B3B3B3"/>
</svg>
