<svg width="27" height="27" viewBox="0 0 27 27" fill="none" xmlns="http://www.w3.org/2000/svg">
<path d="M9.60405 6.9966L12.2022 9.59476L12.6883 9.10865L10.0868 6.5105C9.98623 6.40992 10.0868 6.05791 10.0868 6.05791L8.32677 4.5426L7.62946 5.23991L9.14812 6.9966C9.14812 6.9966 9.51689 6.91279 9.60405 6.9966Z" fill="#474747"/>
<path d="M15.9369 11.1335L14.2238 12.8467L17.9484 16.5645C18.02 16.6365 18.1052 16.6936 18.1989 16.7326C18.2927 16.7715 18.3933 16.7916 18.4948 16.7916C18.5964 16.7916 18.6969 16.7715 18.7907 16.7326C18.8845 16.6936 18.9696 16.6365 19.0413 16.5645L19.6481 15.9577C19.72 15.8861 19.7771 15.8009 19.8161 15.7072C19.8551 15.6134 19.8751 15.5128 19.8751 15.4113C19.8751 15.3097 19.8551 15.2092 19.8161 15.1154C19.7771 15.0216 19.72 14.9365 19.6481 14.8648L15.9369 11.1335Z" fill="#474747"/>
<path d="M18.3439 7.55637C18.2471 7.65323 18.1321 7.73006 18.0055 7.78248C17.879 7.83489 17.7434 7.86187 17.6064 7.86187C17.4694 7.86187 17.3338 7.83489 17.2072 7.78248C17.0807 7.73006 16.9657 7.65323 16.8689 7.55637C16.772 7.45952 16.6952 7.34454 16.6428 7.21799C16.5903 7.09144 16.5634 6.95581 16.5634 6.81883C16.5634 6.68186 16.5903 6.54623 16.6428 6.41968C16.6952 6.29313 16.772 6.17815 16.8689 6.08129L18.5015 4.46541C18.1386 4.29752 17.7447 4.20731 17.3449 4.20056C16.5786 4.2067 15.8454 4.51383 15.3035 5.05571C14.7617 5.59759 14.4545 6.33078 14.4484 7.09709C14.4551 7.49686 14.5453 7.89081 14.7132 8.25369L7.92784 15.0257C7.83099 15.1225 7.75416 15.2375 7.70174 15.364C7.64932 15.4906 7.62234 15.6262 7.62234 15.7632C7.62234 15.9002 7.64932 16.0358 7.70174 16.1623C7.75416 16.2889 7.83099 16.4039 7.92784 16.5007C8.0247 16.5976 8.13968 16.6744 8.26623 16.7268C8.39278 16.7793 8.52841 16.8062 8.66539 16.8062C8.80236 16.8062 8.93799 16.7793 9.06454 16.7268C9.19109 16.6744 9.30607 16.5976 9.40293 16.5007L16.185 9.71201C16.5478 9.8799 16.9418 9.97011 17.3415 9.97685C18.1079 9.97072 18.841 9.66358 19.3829 9.1217C19.9248 8.57982 20.2319 7.84663 20.2381 7.08032C20.2271 6.67959 20.1323 6.28559 19.9598 5.92373L18.3439 7.55637Z" fill="#474747"/>
<path d="M22.977 0.858154H4.87375C3.8068 0.858154 2.78354 1.282 2.02909 2.03645C1.27465 2.7909 0.8508 3.81415 0.8508 4.88111V16.95C0.8508 17.4783 0.954856 18.0014 1.15703 18.4895C1.3592 18.9776 1.65553 19.4211 2.02909 19.7946C2.40266 20.1682 2.84615 20.4645 3.33423 20.6667C3.82232 20.8689 4.34545 20.9729 4.87375 20.9729H11.3038L16.9158 26.5045C17.1286 26.717 17.4163 26.8374 17.717 26.8397C17.8725 26.8401 18.0256 26.8021 18.1629 26.7291C18.3208 26.6465 18.4494 26.5172 18.531 26.3587C18.6126 26.2003 18.6433 26.0206 18.6188 25.844L18.4914 20.9763H22.977C24.044 20.9763 25.0672 20.5524 25.8217 19.798C26.5761 19.0435 27 18.0203 27 16.9533V4.88446C27.0004 4.35587 26.8967 3.83239 26.6947 3.34391C26.4927 2.85544 26.1965 2.41156 25.8229 2.03763C25.4493 1.66371 25.0056 1.36709 24.5173 1.1647C24.029 0.962322 23.5056 0.858154 22.977 0.858154ZM25.659 16.95C25.659 17.3022 25.5896 17.6509 25.4548 17.9763C25.3201 18.3017 25.1225 18.5974 24.8735 18.8464C24.6244 19.0954 24.3288 19.293 24.0034 19.4278C23.678 19.5626 23.3292 19.6319 22.977 19.6319H17.7941C17.7047 19.6319 17.6161 19.6498 17.5336 19.6845C17.4512 19.7193 17.3765 19.7702 17.314 19.8342C17.2515 19.8982 17.2025 19.9742 17.1698 20.0574C17.1371 20.1407 17.1214 20.2297 17.1236 20.3192L17.2443 24.9422L12.048 19.8264C11.9231 19.7025 11.7546 19.6327 11.5787 19.6319H4.87375C4.16245 19.6319 3.48028 19.3494 2.97731 18.8464C2.47435 18.3434 2.19178 17.6613 2.19178 16.95V4.88111C2.19178 4.1698 2.47435 3.48763 2.97731 2.98467C3.48028 2.4817 4.16245 2.19914 4.87375 2.19914H22.977C23.6883 2.19914 24.3705 2.4817 24.8735 2.98467C25.3764 3.48763 25.659 4.1698 25.659 4.88111V16.95Z" fill="#474747"/>
</svg>
