<svg width="23" height="23" viewBox="0 0 23 23" fill="none" xmlns="http://www.w3.org/2000/svg">
<path d="M4.11685 8.79412L9.41694 3.49404C9.23542 3.15907 9.13235 2.7754 9.13235 2.36765C9.13235 1.06003 10.1924 0 11.5 0C12.8076 0 13.8676 1.06003 13.8676 2.36765C13.8676 2.7754 13.7646 3.15907 13.5831 3.49404L18.8831 8.79412H20.2968C21.7898 8.79412 23 10.006 23 11.5001V20.294C23 21.7877 21.7885 23 20.2968 23H2.70324C1.21016 23 0 21.7881 0 20.294V11.5001C0 10.0064 1.21151 8.79412 2.70324 8.79412H4.11685ZM6.0302 8.79412H16.9698L12.6264 4.45071C12.2914 4.63222 11.9077 4.73529 11.5 4.73529C11.0923 4.73529 10.7086 4.63222 10.3736 4.45071L6.0302 8.79412ZM11.5 3.38235C12.0604 3.38235 12.5147 2.92805 12.5147 2.36765C12.5147 1.80724 12.0604 1.35294 11.5 1.35294C10.9396 1.35294 10.4853 1.80724 10.4853 2.36765C10.4853 2.92805 10.9396 3.38235 11.5 3.38235ZM1.35294 11.5001V20.294C1.35294 21.0413 1.95781 21.6471 2.70324 21.6471H20.2968C21.0411 21.6471 21.6471 21.0407 21.6471 20.294V11.5001C21.6471 10.7528 21.0422 10.1471 20.2968 10.1471H2.70324C1.95892 10.1471 1.35294 10.7534 1.35294 11.5001ZM14.5441 19.6176C14.5441 19.9913 14.2413 20.2941 13.8676 20.2941C13.494 20.2941 13.1912 19.9913 13.1912 19.6176V19.2807C13.1912 18.6383 12.8176 18.2647 12.1753 18.2647H10.8247C10.1826 18.2647 9.80882 18.6381 9.80882 19.2778V19.6176C9.80882 19.9913 9.50596 20.2941 9.13235 20.2941C8.75875 20.2941 8.45588 19.9913 8.45588 19.6176V19.2778C8.45588 17.8905 9.43579 16.9118 10.8247 16.9118H12.1753C13.5648 16.9118 14.5441 17.8911 14.5441 19.2807V19.6176ZM11.5 15.8971C10.3792 15.8971 9.47059 14.9885 9.47059 13.8676C9.47059 12.7468 10.3792 11.8382 11.5 11.8382C12.6208 11.8382 13.5294 12.7468 13.5294 13.8676C13.5294 14.9885 12.6208 15.8971 11.5 15.8971ZM11.5 14.5441C11.8736 14.5441 12.1765 14.2413 12.1765 13.8676C12.1765 13.494 11.8736 13.1912 11.5 13.1912C11.1264 13.1912 10.8235 13.494 10.8235 13.8676C10.8235 14.2413 11.1264 14.5441 11.5 14.5441Z" fill="#B2B2B2"/>
</svg>
